<svg xmlns="http://www.w3.org/2000/svg" xmlns:xlink="http://www.w3.org/1999/xlink" width="500" zoomAndPan="magnify" viewBox="0 0 375 374.999991" height="500" preserveAspectRatio="xMidYMid meet" version="1.0"><defs><clipPath id="63bf0918d4"><path d="M 23.066406 23.066406 L 355.316406 23.066406 L 355.316406 355.316406 L 23.066406 355.316406 Z M 23.066406 23.066406 " clip-rule="nonzero"/></clipPath></defs><g clip-path="url(#63bf0918d4)"><path fill="#ffffff" d="M 349.289062 343.566406 L 34.515625 343.566406 L 34.515625 320.671875 L 192.472656 320.671875 C 192.851562 320.671875 193.222656 320.636719 193.589844 320.5625 C 193.960938 320.488281 194.316406 320.382812 194.664062 320.238281 C 195.011719 320.09375 195.339844 319.917969 195.652344 319.707031 C 195.964844 319.5 196.253906 319.261719 196.519531 318.996094 C 196.785156 318.730469 197.023438 318.441406 197.234375 318.128906 C 197.441406 317.816406 197.617188 317.488281 197.761719 317.140625 C 197.90625 316.792969 198.015625 316.433594 198.085938 316.066406 C 198.160156 315.699219 198.195312 315.324219 198.195312 314.949219 L 198.195312 272.828125 C 198.195312 272.453125 198.160156 272.078125 198.085938 271.710938 C 198.015625 271.34375 197.90625 270.984375 197.761719 270.636719 C 197.617188 270.289062 197.441406 269.960938 197.234375 269.648438 C 197.023438 269.335938 196.785156 269.046875 196.519531 268.78125 C 196.253906 268.515625 195.964844 268.277344 195.652344 268.070312 C 195.339844 267.859375 195.011719 267.683594 194.664062 267.539062 C 194.316406 267.394531 193.960938 267.289062 193.589844 267.214844 C 193.222656 267.140625 192.851562 267.105469 192.472656 267.105469 L 34.515625 267.105469 L 34.515625 246.957031 L 237.113281 246.957031 C 237.492188 246.957031 237.863281 246.921875 238.230469 246.847656 C 238.601562 246.777344 238.957031 246.667969 239.304688 246.523438 C 239.652344 246.378906 239.980469 246.203125 240.292969 245.996094 C 240.605469 245.785156 240.894531 245.546875 241.160156 245.28125 C 241.425781 245.015625 241.664062 244.726562 241.875 244.414062 C 242.082031 244.101562 242.257812 243.773438 242.402344 243.425781 C 242.546875 243.078125 242.65625 242.71875 242.726562 242.351562 C 242.800781 241.984375 242.839844 241.613281 242.839844 241.234375 L 242.839844 199.113281 C 242.839844 198.738281 242.800781 198.363281 242.726562 197.996094 C 242.65625 197.628906 242.546875 197.269531 242.402344 196.921875 C 242.257812 196.574219 242.082031 196.246094 241.875 195.933594 C 241.664062 195.621094 241.425781 195.332031 241.160156 195.066406 C 240.894531 194.800781 240.605469 194.5625 240.292969 194.355469 C 239.980469 194.144531 239.652344 193.96875 239.304688 193.824219 C 238.957031 193.679688 238.601562 193.574219 238.230469 193.5 C 237.863281 193.425781 237.492188 193.390625 237.113281 193.390625 L 34.515625 193.390625 L 34.515625 173.242188 L 281.753906 173.242188 C 282.132812 173.242188 282.503906 173.207031 282.871094 173.132812 C 283.242188 173.0625 283.597656 172.953125 283.945312 172.808594 C 284.292969 172.664062 284.621094 172.488281 284.933594 172.28125 C 285.246094 172.070312 285.535156 171.832031 285.800781 171.566406 C 286.070312 171.300781 286.304688 171.011719 286.515625 170.699219 C 286.722656 170.386719 286.898438 170.058594 287.042969 169.710938 C 287.1875 169.363281 287.296875 169.007812 287.367188 168.636719 C 287.441406 168.269531 287.480469 167.898438 287.480469 167.519531 L 287.480469 125.398438 C 287.480469 125.023438 287.441406 124.648438 287.367188 124.28125 C 287.296875 123.914062 287.1875 123.554688 287.042969 123.207031 C 286.898438 122.859375 286.722656 122.53125 286.515625 122.21875 C 286.304688 121.90625 286.070312 121.617188 285.800781 121.351562 C 285.535156 121.085938 285.246094 120.847656 284.933594 120.640625 C 284.621094 120.429688 284.292969 120.253906 283.945312 120.109375 C 283.597656 119.964844 283.242188 119.859375 282.871094 119.785156 C 282.503906 119.710938 282.132812 119.675781 281.753906 119.675781 L 34.515625 119.675781 L 34.515625 99.53125 L 326.398438 99.53125 C 326.773438 99.53125 327.144531 99.492188 327.511719 99.417969 C 327.882812 99.347656 328.238281 99.238281 328.585938 99.09375 C 328.933594 98.949219 329.265625 98.773438 329.578125 98.566406 C 329.890625 98.355469 330.179688 98.117188 330.445312 97.851562 C 330.710938 97.585938 330.945312 97.296875 331.15625 96.984375 C 331.363281 96.671875 331.539062 96.34375 331.683594 95.996094 C 331.828125 95.648438 331.9375 95.292969 332.011719 94.921875 C 332.082031 94.554688 332.121094 94.183594 332.121094 93.804688 L 332.121094 51.683594 C 332.121094 51.308594 332.082031 50.933594 332.011719 50.566406 C 331.9375 50.199219 331.828125 49.839844 331.683594 49.492188 C 331.539062 49.144531 331.363281 48.816406 331.15625 48.503906 C 330.945312 48.191406 330.710938 47.902344 330.445312 47.636719 C 330.179688 47.371094 329.890625 47.132812 329.578125 46.925781 C 329.265625 46.714844 328.933594 46.539062 328.585938 46.394531 C 328.238281 46.253906 327.882812 46.144531 327.511719 46.070312 C 327.144531 45.996094 326.773438 45.960938 326.398438 45.960938 L 34.515625 45.960938 L 34.515625 28.789062 C 34.515625 28.414062 34.476562 28.042969 34.402344 27.675781 C 34.332031 27.304688 34.222656 26.949219 34.078125 26.601562 C 33.933594 26.253906 33.757812 25.921875 33.550781 25.609375 C 33.339844 25.296875 33.101562 25.007812 32.835938 24.742188 C 32.570312 24.476562 32.28125 24.242188 31.96875 24.03125 C 31.65625 23.824219 31.328125 23.648438 30.980469 23.503906 C 30.632812 23.359375 30.277344 23.25 29.90625 23.175781 C 29.539062 23.105469 29.167969 23.066406 28.789062 23.066406 C 28.414062 23.066406 28.042969 23.105469 27.675781 23.175781 C 27.304688 23.25 26.949219 23.359375 26.601562 23.503906 C 26.253906 23.648438 25.921875 23.824219 25.609375 24.03125 C 25.296875 24.242188 25.007812 24.476562 24.742188 24.742188 C 24.476562 25.007812 24.242188 25.296875 24.03125 25.609375 C 23.824219 25.921875 23.648438 26.253906 23.503906 26.601562 C 23.359375 26.949219 23.25 27.304688 23.175781 27.675781 C 23.105469 28.042969 23.066406 28.414062 23.066406 28.789062 L 23.066406 349.289062 C 23.066406 349.664062 23.105469 350.039062 23.175781 350.40625 C 23.25 350.773438 23.359375 351.132812 23.503906 351.480469 C 23.648438 351.828125 23.824219 352.15625 24.03125 352.46875 C 24.242188 352.78125 24.476562 353.070312 24.742188 353.335938 C 25.007812 353.601562 25.296875 353.839844 25.609375 354.046875 C 25.921875 354.257812 26.253906 354.433594 26.601562 354.578125 C 26.949219 354.722656 27.304688 354.828125 27.675781 354.902344 C 28.042969 354.976562 28.414062 355.011719 28.789062 355.011719 L 349.289062 355.011719 C 349.664062 355.011719 350.039062 354.976562 350.40625 354.902344 C 350.773438 354.828125 351.132812 354.722656 351.480469 354.578125 C 351.828125 354.433594 352.15625 354.257812 352.46875 354.046875 C 352.78125 353.839844 353.070312 353.601562 353.335938 353.335938 C 353.601562 353.070312 353.839844 352.78125 354.046875 352.46875 C 354.257812 352.15625 354.433594 351.828125 354.578125 351.480469 C 354.722656 351.132812 354.828125 350.773438 354.902344 350.40625 C 354.976562 350.039062 355.011719 349.664062 355.011719 349.289062 C 355.011719 348.914062 354.976562 348.542969 354.902344 348.171875 C 354.828125 347.804688 354.722656 347.445312 354.578125 347.097656 C 354.433594 346.753906 354.257812 346.421875 354.046875 346.109375 C 353.839844 345.796875 353.601562 345.507812 353.335938 345.242188 C 353.070312 344.976562 352.78125 344.738281 352.46875 344.53125 C 352.15625 344.320312 351.828125 344.144531 351.480469 344.003906 C 351.132812 343.859375 350.773438 343.75 350.40625 343.675781 C 350.039062 343.601562 349.664062 343.566406 349.289062 343.566406 Z M 349.289062 343.566406 " fill-opacity="1" fill-rule="nonzero"/></g></svg>