<svg xmlns="http://www.w3.org/2000/svg" xmlns:xlink="http://www.w3.org/1999/xlink" width="500" zoomAndPan="magnify" viewBox="0 0 375 374.999991" height="500" preserveAspectRatio="xMidYMid meet" version="1.0"><defs><clipPath id="19aa76b17f"><path d="M 31.519531 20.898438 L 343 20.898438 L 343 353.898438 L 31.519531 353.898438 Z M 31.519531 20.898438 " clip-rule="nonzero"/></clipPath></defs><g clip-path="url(#19aa76b17f)"><path fill="#ffffff" d="M 31.519531 231.902344 C 31.519531 249.59375 43.339844 264.695312 59.886719 269.332031 C 59.476562 271.589844 59.273438 273.921875 59.273438 276.308594 C 59.273438 296.160156 74.230469 312.578125 93.738281 314.886719 C 98.714844 337.496094 118.933594 354.019531 142.535156 354.019531 C 162.542969 354.019531 179.789062 342.167969 187.761719 325.144531 L 194.75 340.886719 C 198.351562 348.992188 206.390625 354.015625 214.972656 354.015625 C 216.613281 354.015625 218.273438 353.832031 219.929688 353.449219 L 265.179688 343.007812 C 275.707031 340.582031 282.902344 330.988281 282.273438 320.195312 L 281.792969 311.851562 C 289.796875 313.867188 298.40625 311.027344 303.621094 304.519531 L 313.636719 292.007812 C 318.160156 286.34375 319.496094 278.863281 317.207031 271.984375 L 316.3125 269.296875 L 323.246094 267.773438 C 331.703125 265.652344 338.121094 258.414062 339.191406 249.769531 L 342.207031 225.703125 C 343.210938 217.660156 339.640625 209.859375 332.6875 205.230469 L 329.128906 203.074219 L 330.621094 201.578125 C 334.585938 197.617188 336.855469 192.136719 336.855469 186.535156 L 336.855469 168.15625 C 336.855469 161.023438 333.308594 154.402344 327.375 150.457031 L 322.34375 147.105469 L 326.101562 141.464844 C 329.773438 135.964844 330.675781 129.207031 328.585938 122.9375 L 322.90625 105.910156 C 320.40625 98.40625 314.007812 92.945312 306.214844 91.65625 L 290.71875 89.070312 L 291.53125 87.84375 C 296.066406 81.035156 296.277344 72.109375 292.078125 65.085938 L 285.121094 53.507812 C 281.304688 47.140625 274.308594 43.175781 266.875 43.175781 L 257.007812 43.175781 L 252.089844 33.347656 C 248.265625 25.714844 240.59375 20.972656 232.054688 20.972656 L 214 20.972656 C 205.460938 20.972656 197.792969 25.714844 193.976562 33.347656 L 188.871094 43.558594 C 182.699219 30.25 169.242188 20.972656 153.636719 20.972656 C 138.335938 20.972656 124.753906 29.800781 118.449219 43.375 C 117.226562 43.25 116.007812 43.175781 114.78125 43.175781 C 96.414062 43.175781 81.476562 58.113281 81.476562 76.480469 C 81.476562 81 82.402344 85.460938 84.152344 89.566406 C 63.164062 95.609375 48.171875 114.96875 48.171875 137.539062 C 48.171875 141.148438 48.546875 144.6875 49.304688 148.109375 C 41.488281 155.390625 37.070312 165.511719 37.070312 176.394531 C 37.070312 185.710938 40.34375 194.519531 46.226562 201.453125 C 37.011719 208.75 31.519531 219.875 31.519531 231.902344 Z M 203.910156 38.308594 C 205.835938 34.46875 209.699219 32.074219 214 32.074219 L 232.054688 32.074219 C 236.359375 32.074219 240.226562 34.46875 242.148438 38.308594 L 248.597656 51.207031 C 249.542969 53.089844 251.460938 54.277344 253.566406 54.277344 L 266.863281 54.277344 C 270.421875 54.277344 273.765625 56.171875 275.589844 59.222656 L 282.546875 70.804688 C 284.554688 74.15625 284.457031 78.429688 282.285156 81.6875 L 276.699219 90.058594 C 275.65625 91.625 275.472656 93.617188 276.222656 95.34375 C 276.972656 97.070312 278.550781 98.300781 280.410156 98.613281 L 304.378906 102.609375 C 308.109375 103.226562 311.164062 105.839844 312.359375 109.429688 L 318.039062 126.457031 C 319.035156 129.453125 318.605469 132.675781 316.84375 135.3125 L 310.011719 145.570312 C 309.195312 146.796875 308.902344 148.296875 309.191406 149.742188 C 309.476562 151.183594 310.328125 152.453125 311.554688 153.269531 L 321.203125 159.699219 C 324.042969 161.589844 325.738281 164.753906 325.738281 168.164062 L 325.738281 186.542969 C 325.738281 189.21875 324.652344 191.835938 322.757812 193.734375 L 316.257812 200.234375 C 315.046875 201.441406 314.46875 203.132812 314.667969 204.828125 C 314.875 206.519531 315.851562 208.023438 317.3125 208.90625 L 326.71875 214.597656 C 329.945312 216.75 331.652344 220.480469 331.175781 224.328125 L 328.164062 248.398438 C 327.644531 252.53125 324.578125 255.992188 320.683594 256.96875 L 307.886719 259.789062 C 306.347656 260.128906 305.027344 261.101562 304.25 262.472656 C 303.472656 263.835938 303.316406 265.46875 303.816406 266.96875 L 306.660156 275.503906 C 307.757812 278.789062 307.121094 282.371094 304.949219 285.078125 L 294.941406 297.589844 C 292.28125 300.90625 287.796875 302.238281 283.765625 300.894531 L 277.515625 298.804688 C 275.769531 298.210938 273.847656 298.535156 272.386719 299.660156 C 270.921875 300.777344 270.113281 302.554688 270.21875 304.394531 L 271.179688 320.855469 C 271.488281 326.226562 267.910156 331 262.667969 332.207031 L 217.417969 342.644531 C 212.257812 343.824219 207.023438 341.191406 204.886719 336.390625 L 192.480469 308.453125 L 192.480469 259.671875 L 220.234375 259.671875 L 220.234375 277.347656 C 213.789062 279.644531 209.132812 285.75 209.132812 292.976562 C 209.132812 302.160156 216.601562 309.628906 225.785156 309.628906 C 234.964844 309.628906 242.4375 302.160156 242.4375 292.976562 C 242.4375 285.75 237.777344 279.644531 231.335938 277.347656 L 231.335938 259.671875 C 231.335938 253.550781 226.355469 248.570312 220.234375 248.570312 L 192.480469 248.570312 L 192.480469 226.367188 L 234.9375 226.367188 L 248.96875 237.585938 C 248.375 239.300781 247.980469 241.113281 247.980469 243.019531 C 247.980469 252.203125 255.453125 259.671875 264.632812 259.671875 C 273.816406 259.671875 281.285156 252.203125 281.285156 243.019531 C 281.285156 233.839844 273.816406 226.367188 264.632812 226.367188 C 261.421875 226.367188 258.4375 227.324219 255.890625 228.910156 L 240.34375 216.484375 C 239.359375 215.695312 238.140625 215.265625 236.878906 215.265625 L 192.472656 215.265625 L 192.472656 193.0625 L 271.207031 193.0625 C 273.503906 199.507812 279.609375 204.164062 286.835938 204.164062 C 296.019531 204.164062 303.488281 196.695312 303.488281 187.511719 C 303.488281 178.332031 296.019531 170.859375 286.835938 170.859375 C 279.609375 170.859375 273.503906 175.519531 271.207031 181.960938 L 192.472656 181.960938 L 192.472656 159.757812 L 236.878906 159.757812 C 238.140625 159.757812 239.359375 159.332031 240.34375 158.542969 L 255.890625 146.117188 C 258.4375 147.699219 261.421875 148.660156 264.632812 148.660156 C 273.816406 148.660156 281.285156 141.1875 281.285156 132.007812 C 281.285156 122.824219 273.816406 115.355469 264.632812 115.355469 C 255.453125 115.355469 247.980469 122.824219 247.980469 132.007812 C 247.980469 133.921875 248.371094 135.730469 248.96875 137.441406 L 234.9375 148.660156 L 192.480469 148.660156 L 192.480469 126.457031 L 220.234375 126.457031 C 226.355469 126.457031 231.335938 121.476562 231.335938 115.355469 L 231.335938 97.679688 C 237.777344 95.382812 242.4375 89.277344 242.4375 82.050781 C 242.4375 72.867188 234.964844 65.398438 225.785156 65.398438 C 216.601562 65.398438 209.132812 72.867188 209.132812 82.050781 C 209.132812 89.277344 213.789062 95.382812 220.234375 97.679688 L 220.234375 115.355469 L 192.480469 115.355469 L 192.480469 61.140625 L 203.898438 38.308594 Z M 231.347656 292.960938 C 231.347656 296.027344 228.859375 298.511719 225.796875 298.511719 C 222.730469 298.511719 220.246094 296.027344 220.246094 292.960938 C 220.246094 289.898438 222.730469 287.410156 225.796875 287.410156 C 228.859375 287.410156 231.347656 289.898438 231.347656 292.960938 Z M 264.652344 237.453125 C 267.714844 237.453125 270.203125 239.941406 270.203125 243.003906 C 270.203125 246.070312 267.714844 248.554688 264.652344 248.554688 C 261.585938 248.554688 259.101562 246.070312 259.101562 243.003906 C 259.101562 239.941406 261.585938 237.453125 264.652344 237.453125 Z M 281.304688 187.496094 C 281.304688 184.433594 283.789062 181.945312 286.855469 181.945312 C 289.917969 181.945312 292.40625 184.433594 292.40625 187.496094 C 292.40625 190.5625 289.917969 193.046875 286.855469 193.046875 C 283.789062 193.046875 281.304688 190.5625 281.304688 187.496094 Z M 259.101562 131.988281 C 259.101562 128.925781 261.585938 126.4375 264.652344 126.4375 C 267.714844 126.4375 270.203125 128.925781 270.203125 131.988281 C 270.203125 135.054688 267.714844 137.539062 264.652344 137.539062 C 261.585938 137.539062 259.101562 135.054688 259.101562 131.988281 Z M 220.246094 82.03125 C 220.246094 78.96875 222.730469 76.480469 225.796875 76.480469 C 228.859375 76.480469 231.347656 78.96875 231.347656 82.03125 C 231.347656 85.097656 228.859375 87.582031 225.796875 87.582031 C 222.730469 87.582031 220.246094 85.097656 220.246094 82.03125 Z M 58.523438 197.988281 C 51.941406 192.714844 48.171875 184.847656 48.171875 176.394531 C 48.171875 167.726562 52.09375 159.738281 58.929688 154.488281 C 60.765625 153.078125 61.535156 150.671875 60.859375 148.464844 C 59.792969 144.957031 59.273438 141.386719 59.273438 137.539062 C 59.273438 117.8125 73.980469 101.238281 93.492188 98.980469 C 95.484375 98.75 97.207031 97.457031 97.976562 95.605469 C 98.753906 93.746094 98.460938 91.617188 97.21875 90.035156 C 94.226562 86.230469 92.578125 81.417969 92.578125 76.488281 C 92.578125 64.242188 102.535156 54.285156 114.78125 54.285156 C 116.722656 54.285156 118.644531 54.539062 120.496094 55.039062 C 123.367188 55.816406 126.324219 54.191406 127.222656 51.363281 C 130.910156 39.835938 141.523438 32.082031 153.636719 32.082031 C 168.9375 32.082031 181.390625 44.53125 181.390625 59.835938 L 181.390625 304.070312 C 181.390625 325.488281 163.953125 342.925781 142.535156 342.925781 C 122.957031 342.925781 106.371094 328.308594 103.96875 308.9375 C 103.621094 306.15625 100.929688 304.070312 98.128906 304.070312 C 82.824219 304.070312 70.375 291.617188 70.375 276.316406 C 70.375 272.996094 70.929688 269.871094 72.011719 267.023438 C 72.621094 265.417969 72.457031 263.621094 71.5625 262.148438 C 70.664062 260.679688 69.136719 259.71875 67.433594 259.523438 C 53.289062 257.976562 42.621094 246.101562 42.621094 231.902344 C 42.621094 221.511719 48.363281 212.058594 57.617188 207.242188 C 59.28125 206.375 60.394531 204.726562 60.578125 202.863281 C 60.757812 200.992188 59.988281 199.160156 58.523438 197.988281 Z M 58.523438 197.988281 " fill-opacity="1" fill-rule="nonzero"/></g><path fill="#ffffff" d="M 109.230469 137.539062 C 122.324219 137.539062 134.214844 132.4375 143.132812 124.167969 C 146.347656 129.925781 148.085938 136.457031 148.085938 143.089844 C 148.085938 146.160156 150.566406 148.640625 153.636719 148.640625 C 156.703125 148.640625 159.1875 146.160156 159.1875 143.089844 C 159.1875 133.222656 156.210938 123.511719 150.742188 115.335938 C 156.070312 107.394531 159.1875 97.847656 159.1875 87.582031 C 159.1875 84.511719 156.703125 82.03125 153.636719 82.03125 C 150.566406 82.03125 148.085938 84.511719 148.085938 87.582031 C 148.085938 109.003906 130.648438 126.4375 109.230469 126.4375 C 106.160156 126.4375 103.679688 128.917969 103.679688 131.988281 C 103.679688 135.058594 106.160156 137.539062 109.230469 137.539062 Z M 109.230469 137.539062 " fill-opacity="1" fill-rule="nonzero"/><path fill="#ffffff" d="M 153.636719 248.554688 C 132.214844 248.554688 114.78125 265.992188 114.78125 287.410156 C 114.78125 290.480469 117.261719 292.960938 120.332031 292.960938 C 123.398438 292.960938 125.882812 290.480469 125.882812 287.410156 C 125.882812 272.105469 138.332031 259.65625 153.636719 259.65625 C 156.703125 259.65625 159.1875 257.175781 159.1875 254.105469 C 159.1875 251.035156 156.703125 248.554688 153.636719 248.554688 Z M 153.636719 248.554688 " fill-opacity="1" fill-rule="nonzero"/><path fill="#ffffff" d="M 87.027344 231.902344 C 90.09375 231.902344 92.578125 229.421875 92.578125 226.351562 C 92.578125 219.71875 94.3125 213.191406 97.527344 207.429688 C 106.441406 215.699219 118.335938 220.800781 131.433594 220.800781 C 134.5 220.800781 136.984375 218.320312 136.984375 215.25 C 136.984375 212.179688 134.5 209.699219 131.433594 209.699219 C 110.011719 209.699219 92.578125 192.265625 92.578125 170.84375 C 92.578125 167.773438 90.09375 165.292969 87.027344 165.292969 C 83.957031 165.292969 81.476562 167.773438 81.476562 170.84375 C 81.476562 181.109375 84.59375 190.65625 89.917969 198.597656 C 84.449219 206.78125 81.476562 216.484375 81.476562 226.351562 C 81.476562 229.421875 83.957031 231.902344 87.027344 231.902344 Z M 87.027344 231.902344 " fill-opacity="1" fill-rule="nonzero"/></svg>