<svg xmlns="http://www.w3.org/2000/svg" xmlns:xlink="http://www.w3.org/1999/xlink" width="500" zoomAndPan="magnify" viewBox="0 0 375 374.999991" height="500" preserveAspectRatio="xMidYMid meet" version="1.0"><defs><clipPath id="faa0bb242e"><path d="M 11.054688 26.054688 L 364 26.054688 L 364 349 L 11.054688 349 Z M 11.054688 26.054688 " clip-rule="nonzero"/></clipPath></defs><g clip-path="url(#faa0bb242e)"><path fill="#ffffff" d="M 22.355469 26.078125 C 16.105469 26.078125 11.050781 31.132812 11.050781 37.386719 L 11.050781 337.613281 C 11.050781 343.863281 16.105469 348.917969 22.355469 348.917969 L 352.644531 348.917969 C 358.894531 348.917969 363.949219 343.863281 363.949219 337.613281 C 363.949219 331.492188 358.894531 326.4375 352.644531 326.4375 L 33.53125 326.4375 L 33.53125 37.386719 C 33.53125 31.132812 28.476562 26.078125 22.355469 26.078125 Z M 247.558594 97.378906 C 240.773438 97.378906 235.453125 103.761719 235.71875 109.21875 C 235.984375 115.203125 241.707031 120.257812 247.558594 119.859375 L 279.351562 119.859375 L 179.453125 213.769531 L 143.667969 183.839844 C 141.410156 181.179688 137.816406 179.585938 134.226562 179.851562 C 131.699219 179.984375 129.304688 181.046875 127.441406 182.777344 L 52.285156 250.351562 C 47.761719 254.207031 47.097656 262.058594 51.222656 266.578125 C 55.210938 271.101562 63.058594 271.367188 67.316406 267.113281 L 135.289062 206.054688 L 171.472656 236.117188 C 175.328125 240.773438 183.308594 241.171875 187.699219 237.050781 L 296.375 134.890625 L 296.375 168.675781 C 296.242188 174.664062 301.699219 180.117188 307.683594 180.117188 C 313.535156 180.117188 318.988281 174.664062 318.855469 168.675781 L 318.855469 108.683594 C 318.855469 102.699219 313.535156 97.378906 307.683594 97.378906 Z M 247.558594 97.378906 " fill-opacity="1" fill-rule="nonzero"/></g></svg>