<svg xmlns="http://www.w3.org/2000/svg" xmlns:xlink="http://www.w3.org/1999/xlink" width="500" zoomAndPan="magnify" viewBox="0 0 375 374.999991" height="500" preserveAspectRatio="xMidYMid meet" version="1.0"><defs><clipPath id="b03fbb4bd7"><path d="M 77.0625 99.175781 L 115.550781 99.175781 L 115.550781 362.171875 L 77.0625 362.171875 Z M 77.0625 99.175781 " clip-rule="nonzero"/></clipPath><clipPath id="0c1897b37b"><path d="M 259.203125 11.875 L 297.691406 11.875 L 297.691406 274.871094 L 259.203125 274.871094 Z M 259.203125 11.875 " clip-rule="nonzero"/></clipPath><clipPath id="f34ec2637c"><path d="M 199 99.175781 L 237.488281 99.175781 L 237.488281 177.136719 L 199 177.136719 Z M 199 99.175781 " clip-rule="nonzero"/></clipPath><clipPath id="24b0d83a96"><path d="M 199 263.519531 L 237.488281 263.519531 L 237.488281 341.480469 L 199 341.480469 Z M 199 263.519531 " clip-rule="nonzero"/></clipPath><clipPath id="7294d2f374"><path d="M 138.800781 33.113281 L 177.285156 33.113281 L 177.285156 111.074219 L 138.800781 111.074219 Z M 138.800781 33.113281 " clip-rule="nonzero"/></clipPath><clipPath id="08085d02e9"><path d="M 138.800781 196.910156 L 177.285156 196.910156 L 177.285156 274.871094 L 138.800781 274.871094 Z M 138.800781 196.910156 " clip-rule="nonzero"/></clipPath><clipPath id="059a858bcf"><path d="M 138.800781 135.15625 L 177.285156 135.15625 L 177.285156 174.136719 L 138.800781 174.136719 Z M 138.800781 135.15625 " clip-rule="nonzero"/></clipPath><clipPath id="dde90fd4b0"><path d="M 199.785156 200.839844 L 238.273438 200.839844 L 238.273438 239.820312 L 199.785156 239.820312 Z M 199.785156 200.839844 " clip-rule="nonzero"/></clipPath></defs><g clip-path="url(#b03fbb4bd7)"><path fill="#ffffff" d="M 77.0625 99.175781 L 115.550781 99.175781 L 115.550781 362.121094 L 77.0625 362.121094 Z M 77.0625 99.175781 " fill-opacity="1" fill-rule="nonzero"/></g><g clip-path="url(#0c1897b37b)"><path fill="#ffffff" d="M 259.203125 11.875 L 297.691406 11.875 L 297.691406 274.820312 L 259.203125 274.820312 Z M 259.203125 11.875 " fill-opacity="1" fill-rule="nonzero"/></g><g clip-path="url(#f34ec2637c)"><path fill="#ffffff" d="M 199 99.175781 L 237.488281 99.175781 L 237.488281 177.203125 L 199 177.203125 Z M 199 99.175781 " fill-opacity="1" fill-rule="nonzero"/></g><g clip-path="url(#24b0d83a96)"><path fill="#ffffff" d="M 199 263.519531 L 237.488281 263.519531 L 237.488281 341.546875 L 199 341.546875 Z M 199 263.519531 " fill-opacity="1" fill-rule="nonzero"/></g><g clip-path="url(#7294d2f374)"><path fill="#ffffff" d="M 138.800781 33.113281 L 177.285156 33.113281 L 177.285156 111.140625 L 138.800781 111.140625 Z M 138.800781 33.113281 " fill-opacity="1" fill-rule="nonzero"/></g><g clip-path="url(#08085d02e9)"><path fill="#ffffff" d="M 138.800781 196.910156 L 177.285156 196.910156 L 177.285156 274.9375 L 138.800781 274.9375 Z M 138.800781 196.910156 " fill-opacity="1" fill-rule="nonzero"/></g><g clip-path="url(#059a858bcf)"><path fill="#ffffff" d="M 138.800781 135.15625 L 177.285156 135.15625 L 177.285156 174.097656 L 138.800781 174.097656 Z M 138.800781 135.15625 " fill-opacity="1" fill-rule="nonzero"/></g><g clip-path="url(#dde90fd4b0)"><path fill="#ffffff" d="M 199.785156 200.839844 L 238.273438 200.839844 L 238.273438 239.777344 L 199.785156 239.777344 Z M 199.785156 200.839844 " fill-opacity="1" fill-rule="nonzero"/></g></svg>