<svg xmlns="http://www.w3.org/2000/svg" xmlns:xlink="http://www.w3.org/1999/xlink" width="500" zoomAndPan="magnify" viewBox="0 0 375 374.999991" height="500" preserveAspectRatio="xMidYMid meet" version="1.0"><defs><clipPath id="1d5f26ab04"><path d="M 75 22.769531 L 186 22.769531 L 186 173 L 75 173 Z M 75 22.769531 " clip-rule="nonzero"/></clipPath><clipPath id="0fcee59921"><path d="M 25.761719 90 L 179 90 L 179 282 L 25.761719 282 Z M 25.761719 90 " clip-rule="nonzero"/></clipPath><clipPath id="fd5a370e82"><path d="M 80 63 L 354.261719 63 L 354.261719 358 L 80 358 Z M 80 63 " clip-rule="nonzero"/></clipPath></defs><g clip-path="url(#1d5f26ab04)"><path fill="#ffffff" d="M 181.546875 172.226562 C 182.078125 172.023438 182.566406 171.742188 183.011719 171.390625 C 183.460938 171.039062 183.84375 170.628906 184.167969 170.160156 C 184.492188 169.691406 184.738281 169.183594 184.910156 168.640625 C 185.078125 168.097656 185.164062 167.542969 185.167969 166.972656 L 185.167969 28.554688 C 185.164062 28.175781 185.125 27.804688 185.046875 27.433594 C 184.96875 27.066406 184.855469 26.710938 184.707031 26.363281 C 184.558594 26.015625 184.378906 25.6875 184.167969 25.378906 C 183.953125 25.066406 183.714844 24.78125 183.445312 24.515625 C 183.175781 24.253906 182.882812 24.019531 182.566406 23.8125 C 182.25 23.609375 181.917969 23.4375 181.570312 23.296875 C 181.21875 23.15625 180.859375 23.050781 180.488281 22.980469 C 180.121094 22.914062 179.746094 22.882812 179.371094 22.886719 C 174.660156 22.871094 169.964844 23.078125 165.273438 23.511719 C 160.585938 23.941406 155.929688 24.597656 151.300781 25.472656 C 146.675781 26.347656 142.101562 27.441406 137.578125 28.753906 C 133.058594 30.066406 128.609375 31.589844 124.230469 33.324219 C 119.855469 35.0625 115.570312 37 111.378906 39.144531 C 107.1875 41.289062 103.105469 43.628906 99.136719 46.160156 C 95.167969 48.695312 91.328125 51.410156 87.617188 54.308594 C 83.90625 57.207031 80.34375 60.277344 76.925781 63.515625 C 76.652344 63.769531 76.40625 64.050781 76.191406 64.355469 C 75.972656 64.660156 75.789062 64.984375 75.640625 65.328125 C 75.488281 65.667969 75.371094 66.023438 75.292969 66.386719 C 75.210938 66.753906 75.167969 67.125 75.164062 67.496094 C 75.15625 67.871094 75.1875 68.242188 75.253906 68.609375 C 75.324219 68.976562 75.429688 69.335938 75.566406 69.683594 C 75.707031 70.03125 75.882812 70.359375 76.085938 70.671875 C 76.292969 70.984375 76.527344 71.273438 76.792969 71.535156 L 175.210938 170.917969 C 175.617188 171.324219 176.074219 171.664062 176.582031 171.933594 C 177.085938 172.207031 177.621094 172.402344 178.183594 172.519531 C 178.746094 172.632812 179.3125 172.667969 179.886719 172.617188 C 180.457031 172.570312 181.011719 172.4375 181.546875 172.226562 Z M 173.578125 152.980469 L 89.222656 67.785156 C 95.050781 62.710938 101.265625 58.164062 107.863281 54.144531 C 114.464844 50.125 121.355469 46.691406 128.539062 43.84375 C 135.722656 40.996094 143.09375 38.773438 150.65625 37.179688 C 158.214844 35.582031 165.855469 34.636719 173.578125 34.335938 Z M 173.578125 152.980469 " fill-opacity="1" fill-rule="nonzero"/></g><g clip-path="url(#0fcee59921)"><path fill="#ffffff" d="M 178.910156 196.570312 C 178.988281 195.742188 178.886719 194.941406 178.605469 194.160156 C 178.324219 193.378906 177.890625 192.695312 177.304688 192.105469 L 78.878906 92.703125 C 78.339844 92.164062 77.71875 91.742188 77.011719 91.445312 C 76.308594 91.148438 75.574219 90.992188 74.808594 90.984375 C 74.046875 90.980469 73.304688 91.113281 72.59375 91.390625 C 71.878906 91.667969 71.242188 92.0625 70.679688 92.582031 C 41.757812 119.988281 25.84375 156.734375 25.84375 196.054688 C 25.832031 203.496094 26.410156 210.890625 27.574219 218.242188 C 28.738281 225.589844 30.472656 232.804688 32.777344 239.878906 C 35.082031 246.953125 37.933594 253.804688 41.324219 260.429688 C 44.710938 267.050781 48.601562 273.367188 52.996094 279.375 C 53.542969 280.132812 54.238281 280.722656 55.070312 281.140625 C 55.90625 281.5625 56.789062 281.773438 57.726562 281.765625 C 58.945312 281.761719 60.058594 281.414062 61.066406 280.71875 L 176.492188 200.671875 C 177.179688 200.203125 177.734375 199.605469 178.15625 198.890625 C 178.578125 198.171875 178.828125 197.398438 178.910156 196.570312 Z M 59.199219 268.101562 C 55.664062 262.796875 52.539062 257.261719 49.820312 251.496094 C 47.101562 245.730469 44.820312 239.792969 42.980469 233.691406 C 41.136719 227.589844 39.753906 221.382812 38.824219 215.078125 C 37.898438 208.769531 37.4375 202.429688 37.445312 196.054688 C 37.445312 161.71875 50.617188 129.511719 74.671875 104.75 L 164.28125 195.246094 Z M 59.199219 268.101562 " fill-opacity="1" fill-rule="nonzero"/></g><g clip-path="url(#fd5a370e82)"><path fill="#ffffff" d="M 353.179688 191.5625 C 352.859375 189.207031 352.488281 186.878906 352.054688 184.566406 C 351.128906 179.601562 349.949219 174.699219 348.507812 169.859375 C 347.894531 167.792969 347.222656 165.726562 346.519531 163.660156 C 344.984375 159.261719 343.214844 154.859375 341.25 150.632812 C 340.398438 148.765625 339.507812 146.941406 338.578125 145.121094 C 336.554688 141.191406 334.308594 137.265625 331.894531 133.417969 C 330.832031 131.757812 329.765625 130.117188 328.648438 128.511719 C 325.894531 124.546875 322.898438 120.667969 319.757812 116.992188 C 318.511719 115.527344 317.238281 114.074219 315.917969 112.648438 C 313.03125 109.519531 309.925781 106.449219 306.675781 103.480469 C 305.257812 102.1875 303.804688 100.917969 302.324219 99.671875 C 298.992188 96.855469 295.484375 94.164062 291.945312 91.65625 C 290.328125 90.515625 288.695312 89.398438 287.054688 88.347656 C 283.1875 85.824219 279.269531 83.527344 275.417969 81.507812 C 273.628906 80.558594 271.804688 79.640625 269.957031 78.753906 C 265.21875 76.488281 260.378906 74.480469 255.429688 72.726562 C 253.363281 72.039062 251.296875 71.308594 249.230469 70.660156 C 244.410156 69.1875 239.4375 67.90625 234.417969 66.921875 C 232.105469 66.46875 229.777344 66.054688 227.414062 65.695312 C 221.78125 64.855469 216.117188 64.328125 210.425781 64.121094 C 208.421875 64.039062 206.417969 63.976562 204.402344 63.976562 C 203.84375 63.96875 203.289062 64.019531 202.738281 64.121094 C 202.191406 64.222656 201.65625 64.378906 201.136719 64.589844 C 200.621094 64.796875 200.125 65.054688 199.65625 65.359375 C 199.191406 65.664062 198.757812 66.011719 198.355469 66.402344 C 197.957031 66.792969 197.597656 67.21875 197.285156 67.679688 C 196.96875 68.140625 196.699219 68.628906 196.480469 69.140625 C 196.261719 69.65625 196.09375 70.1875 195.976562 70.730469 C 195.863281 71.277344 195.800781 71.832031 195.792969 72.390625 L 195.792969 206.5625 L 84.050781 284.046875 C 83.113281 284.6875 82.339844 285.484375 81.726562 286.441406 C 81.113281 287.398438 80.710938 288.433594 80.519531 289.554688 C 80.335938 290.65625 80.371094 291.746094 80.628906 292.832031 C 80.882812 293.917969 81.339844 294.914062 82 295.8125 L 82.558594 296.542969 C 84.988281 299.84375 87.679688 303.160156 90.820312 306.707031 C 92.09375 308.152344 93.390625 309.578125 94.710938 310.964844 C 97.601562 313.992188 100.765625 317.03125 104.109375 319.976562 C 105.5625 321.25 107.039062 322.496094 108.546875 323.722656 C 112.675781 327.082031 116.527344 329.921875 120.3125 332.449219 C 121.691406 333.355469 123.117188 334.21875 124.527344 335.070312 L 125.367188 335.582031 C 129.257812 337.949219 133.265625 340.140625 137.300781 342.144531 C 139.148438 343.039062 141 343.925781 142.867188 344.746094 C 146.996094 346.558594 151.34375 348.230469 156.261719 349.871094 C 158.324219 350.558594 160.390625 351.246094 162.511719 351.820312 C 167.460938 353.25 172.46875 354.429688 177.539062 355.359375 C 179.914062 355.777344 182.304688 356.109375 184.6875 356.425781 C 191.058594 357.265625 197.457031 357.703125 203.886719 357.734375 L 204.441406 357.734375 C 207.15625 357.734375 209.839844 357.652344 212.507812 357.515625 C 219.664062 357.136719 226.761719 356.261719 233.796875 354.890625 C 237.332031 354.203125 240.890625 353.363281 244.6875 352.320312 C 255.558594 349.390625 265.964844 345.28125 275.90625 339.992188 C 285.847656 334.707031 295.074219 328.375 303.582031 321.003906 C 310.183594 315.3125 316.238281 309.089844 321.75 302.339844 C 327.265625 295.589844 332.152344 288.410156 336.410156 280.808594 C 341.785156 271.109375 345.988281 260.925781 349.019531 250.261719 C 350.085938 246.496094 350.941406 243.011719 351.640625 239.59375 C 353.03125 232.710938 353.925781 225.765625 354.320312 218.757812 C 354.457031 216.148438 354.535156 213.53125 354.535156 210.886719 L 354.535156 210.480469 C 354.492188 204.144531 354.039062 197.839844 353.179688 191.5625 Z M 342.730469 218.164062 C 342.371094 224.628906 341.546875 231.03125 340.257812 237.378906 C 339.613281 240.515625 338.828125 243.738281 337.835938 247.222656 C 335.046875 257.070312 331.171875 266.472656 326.210938 275.421875 C 321.191406 284.433594 315.222656 292.765625 308.308594 300.421875 C 302.890625 306.421875 297 311.910156 290.632812 316.886719 C 284.261719 321.863281 277.515625 326.257812 270.386719 330.066406 C 261.207031 334.933594 251.605469 338.726562 241.582031 341.441406 C 238.066406 342.398438 234.785156 343.175781 231.53125 343.804688 C 225.042969 345.074219 218.496094 345.878906 211.894531 346.21875 C 209.429688 346.359375 206.964844 346.449219 204.46875 346.425781 L 204.070312 346.425781 C 198.09375 346.40625 192.144531 346 186.222656 345.214844 C 184.011719 344.933594 181.808594 344.621094 179.625 344.230469 C 174.949219 343.378906 170.328125 342.292969 165.761719 340.972656 C 163.820312 340.414062 161.894531 339.800781 159.992188 339.167969 C 155.441406 337.652344 151.410156 336.105469 147.632812 334.4375 C 145.890625 333.675781 144.1875 332.847656 142.5 332.035156 C 138.796875 330.203125 135.085938 328.164062 131.484375 325.980469 L 130.628906 325.457031 C 129.335938 324.679688 128.054688 323.910156 126.808594 323.082031 C 123.363281 320.78125 119.785156 318.152344 115.953125 315.039062 C 114.578125 313.910156 113.199219 312.753906 111.859375 311.597656 C 108.757812 308.875 105.847656 306.085938 103.175781 303.269531 C 101.941406 301.992188 100.75 300.660156 99.585938 299.347656 C 97.230469 296.679688 95.152344 294.148438 93.238281 291.648438 L 204.960938 214.09375 C 205.722656 213.570312 206.320312 212.898438 206.75 212.082031 C 207.183594 211.265625 207.402344 210.394531 207.402344 209.46875 L 207.402344 75.425781 L 209.984375 75.523438 C 215.238281 75.714844 220.460938 76.195312 225.660156 76.96875 C 227.839844 77.304688 229.996094 77.683594 232.132812 78.105469 C 236.753906 79.035156 241.347656 80.171875 245.792969 81.550781 C 247.707031 82.132812 249.59375 82.773438 251.476562 83.441406 C 256.035156 85.046875 260.5 86.882812 264.871094 88.953125 C 266.578125 89.765625 268.257812 90.613281 269.929688 91.492188 C 273.46875 93.351562 277.070312 95.464844 280.667969 97.8125 C 282.179688 98.785156 283.667969 99.796875 285.164062 100.859375 C 288.449219 103.164062 291.675781 105.679688 294.761719 108.261719 C 296.140625 109.410156 297.480469 110.585938 298.785156 111.792969 C 301.785156 114.511719 304.65625 117.359375 307.316406 120.25 C 308.527344 121.566406 309.707031 122.902344 310.863281 124.25 C 313.761719 127.660156 316.523438 131.234375 319.078125 134.902344 C 320.109375 136.390625 321.09375 137.90625 322.058594 139.414062 C 324.285156 142.933594 326.363281 146.554688 328.222656 150.191406 C 329.078125 151.851562 329.894531 153.53125 330.6875 155.257812 C 332.5 159.183594 334.128906 163.226562 335.550781 167.289062 C 336.203125 169.164062 336.808594 171.050781 337.382812 172.976562 C 338.71875 177.457031 339.8125 181.992188 340.652344 186.589844 C 341.058594 188.726562 341.402344 190.882812 341.699219 193.042969 C 342.484375 198.835938 342.890625 204.65625 342.925781 210.5 L 342.925781 210.886719 C 342.929688 213.335938 342.855469 215.769531 342.730469 218.164062 Z M 342.730469 218.164062 " fill-opacity="1" fill-rule="nonzero"/></g></svg>