<svg xmlns="http://www.w3.org/2000/svg" xmlns:xlink="http://www.w3.org/1999/xlink" width="500" zoomAndPan="magnify" viewBox="0 0 375 374.999991" height="500" preserveAspectRatio="xMidYMid meet" version="1.0"><defs><clipPath id="4eadb5a9f6"><path d="M 24.109375 25 L 268 25 L 268 269 L 24.109375 269 Z M 24.109375 25 " clip-rule="nonzero"/></clipPath><clipPath id="173e2f88f2"><path d="M 143.03125 289.207031 L 166 289.207031 L 166 312.457031 L 143.03125 312.457031 Z M 143.03125 289.207031 " clip-rule="nonzero"/></clipPath></defs><g clip-path="url(#4eadb5a9f6)"><path fill="#ffffff" d="M 109.09375 97.90625 C 109.09375 86.464844 109.113281 75.632812 109.085938 64.796875 C 109.078125 61.5 108.730469 58.191406 108.917969 54.914062 C 109.433594 45.941406 114.488281 39.882812 121.988281 35.628906 C 133.109375 29.320312 145.394531 26.734375 157.890625 26 C 172.921875 25.113281 188.039062 24.726562 203.078125 25.265625 C 218.449219 25.820312 233.574219 28.613281 247.257812 36.328125 C 258.144531 42.464844 266.019531 50.925781 267.214844 64.070312 C 267.414062 66.289062 267.265625 68.535156 267.265625 70.769531 C 267.265625 92.929688 267.488281 115.09375 267.128906 137.246094 C 267.023438 143.867188 266.183594 150.757812 264.125 157.007812 C 260.292969 168.628906 251.503906 175.953125 239.949219 179.441406 C 234.265625 181.152344 228.191406 182.304688 222.28125 182.378906 C 197.171875 182.695312 172.058594 182.496094 146.949219 182.527344 C 139.617188 182.535156 132.367188 183.15625 125.421875 185.820312 C 111.277344 191.238281 103.515625 202.023438 100.175781 216.285156 C 99.136719 220.71875 98.695312 225.363281 98.605469 229.925781 C 98.386719 241.117188 98.535156 252.320312 98.535156 263.515625 L 98.535156 267.113281 C 98.070312 267.503906 97.898438 267.777344 97.722656 267.777344 C 86.78125 267.703125 75.621094 268.953125 64.953125 267.203125 C 48.625 264.523438 39.109375 252.644531 32.941406 238.0625 C 25.285156 219.96875 24.144531 200.824219 24.621094 181.519531 C 24.910156 169.707031 26.21875 157.96875 30.007812 146.714844 C 36.464844 127.527344 47.976562 113.410156 69.089844 109.636719 C 72.183594 109.082031 75.425781 109.25 78.597656 109.246094 C 114.203125 109.226562 149.808594 109.21875 185.410156 109.230469 C 186.222656 109.230469 187.035156 109.140625 188.441406 109.054688 C 188.441406 105.882812 188.53125 102.753906 188.363281 99.640625 C 188.328125 99.042969 187.363281 98.242188 186.664062 98.003906 C 185.820312 97.710938 184.800781 97.910156 183.859375 97.910156 C 160.515625 97.90625 137.171875 97.90625 113.832031 97.90625 Z M 157.359375 63.894531 C 157.445312 56.4375 151.085938 49.917969 143.515625 49.703125 C 135.953125 49.492188 129.191406 56.035156 129.070312 63.679688 C 128.953125 71.21875 135.507812 77.949219 143.128906 78.101562 C 150.59375 78.253906 157.273438 71.589844 157.359375 63.894531 Z M 157.359375 63.894531 " fill-opacity="1" fill-rule="nonzero"/></g><path fill="#ffffff" d="M 188.101562 265.949219 L 188.101562 276.746094 C 189.539062 276.824219 190.894531 276.964844 192.25 276.964844 C 215.945312 276.980469 239.644531 277.027344 263.335938 276.90625 C 266.378906 276.894531 267.378906 277.609375 267.363281 280.800781 C 267.304688 293.289062 267.667969 305.785156 267.648438 318.277344 C 267.628906 328.257812 262.3125 335.164062 253.863281 339.707031 C 242.875 345.617188 230.839844 348.273438 218.550781 348.929688 C 203.511719 349.730469 188.398438 350.273438 173.367188 349.695312 C 158.382812 349.121094 143.535156 346.480469 130.117188 339.132812 C 116.824219 331.855469 108.660156 321.5 109.042969 305.214844 C 109.570312 282.476562 109.128906 259.71875 109.199219 236.96875 C 109.226562 228.171875 110.3125 219.59375 115.113281 211.859375 C 121.277344 201.914062 130.433594 196.371094 141.570312 193.980469 C 146.308594 192.976562 151.097656 192.460938 155.941406 192.4375 C 180.460938 192.289062 204.984375 192.585938 229.5 192.226562 C 236.472656 192.125 243.664062 191.160156 250.324219 189.15625 C 263.132812 185.304688 270.960938 175.789062 274.878906 163.351562 C 276.65625 157.707031 277.472656 151.597656 277.699219 145.660156 C 278.128906 134.242188 277.824219 122.796875 277.824219 111.363281 L 277.824219 107.753906 C 278.277344 107.375 278.449219 107.101562 278.621094 107.101562 C 289.332031 107.164062 300.203125 106.097656 310.710938 107.589844 C 327.394531 109.960938 336.90625 121.894531 343.289062 136.476562 C 348.257812 147.820312 350.757812 159.71875 350.507812 172.203125 C 350.28125 183.628906 350.851562 195.082031 350.367188 206.496094 C 349.648438 223.414062 344.660156 238.976562 333.019531 251.722656 C 324.304688 261.269531 313.21875 265.804688 300.257812 265.792969 C 263.476562 265.753906 226.695312 265.738281 189.914062 265.746094 C 189.453125 265.746094 188.988281 265.847656 188.101562 265.949219 Z M 233.273438 325.199219 C 240.933594 325.179688 247.429688 318.539062 247.277344 310.882812 C 247.128906 303.292969 240.734375 296.902344 233.273438 296.875 C 225.714844 296.84375 219.027344 303.503906 219.027344 311.058594 C 219.023438 318.664062 225.625 325.21875 233.273438 325.199219 Z M 233.273438 325.199219 " fill-opacity="1" fill-rule="nonzero"/><g clip-path="url(#173e2f88f2)"><path fill="#ffffff" d="M 165.964844 300.671875 C 165.964844 301.425781 165.890625 302.171875 165.742188 302.910156 C 165.597656 303.648438 165.378906 304.367188 165.089844 305.0625 C 164.804688 305.757812 164.449219 306.417969 164.03125 307.042969 C 163.613281 307.667969 163.136719 308.25 162.605469 308.78125 C 162.074219 309.3125 161.492188 309.789062 160.867188 310.207031 C 160.242188 310.625 159.582031 310.980469 158.886719 311.265625 C 158.191406 311.554688 157.472656 311.773438 156.734375 311.917969 C 155.996094 312.066406 155.25 312.140625 154.496094 312.140625 C 153.746094 312.140625 153 312.066406 152.261719 311.917969 C 151.523438 311.773438 150.804688 311.554688 150.109375 311.265625 C 149.414062 310.980469 148.753906 310.625 148.125 310.207031 C 147.5 309.789062 146.921875 309.3125 146.390625 308.78125 C 145.855469 308.25 145.382812 307.667969 144.964844 307.042969 C 144.542969 306.417969 144.191406 305.757812 143.902344 305.0625 C 143.613281 304.367188 143.398438 303.648438 143.25 302.910156 C 143.105469 302.171875 143.03125 301.425781 143.03125 300.671875 C 143.03125 299.921875 143.105469 299.175781 143.25 298.4375 C 143.398438 297.699219 143.613281 296.980469 143.902344 296.285156 C 144.191406 295.589844 144.542969 294.929688 144.964844 294.300781 C 145.382812 293.675781 145.855469 293.097656 146.390625 292.566406 C 146.921875 292.03125 147.5 291.558594 148.125 291.140625 C 148.753906 290.71875 149.414062 290.367188 150.109375 290.078125 C 150.804688 289.792969 151.523438 289.574219 152.261719 289.425781 C 153 289.28125 153.746094 289.207031 154.496094 289.207031 C 155.25 289.207031 155.996094 289.28125 156.734375 289.425781 C 157.472656 289.574219 158.191406 289.792969 158.886719 290.078125 C 159.582031 290.367188 160.242188 290.71875 160.867188 291.140625 C 161.492188 291.558594 162.074219 292.03125 162.605469 292.566406 C 163.136719 293.097656 163.613281 293.675781 164.03125 294.300781 C 164.449219 294.929688 164.804688 295.589844 165.089844 296.285156 C 165.378906 296.980469 165.597656 297.699219 165.742188 298.4375 C 165.890625 299.175781 165.964844 299.921875 165.964844 300.671875 Z M 165.964844 300.671875 " fill-opacity="1" fill-rule="nonzero"/></g></svg>