<svg xmlns="http://www.w3.org/2000/svg" xmlns:xlink="http://www.w3.org/1999/xlink" width="500" zoomAndPan="magnify" viewBox="0 0 375 374.999991" height="500" preserveAspectRatio="xMidYMid meet" version="1.0"><defs><clipPath id="563de8bd1f"><path d="M 12.398438 12.398438 L 362.648438 12.398438 L 362.648438 362.648438 L 12.398438 362.648438 Z M 12.398438 12.398438 " clip-rule="nonzero"/></clipPath></defs><g clip-path="url(#563de8bd1f)"><path fill="#ffffff" d="M 79.308594 215.515625 C 73.179688 212.554688 66.339844 210.84375 59.089844 210.84375 C 33.34375 210.84375 12.398438 231.792969 12.398438 257.539062 C 12.398438 283.285156 33.34375 304.234375 59.089844 304.234375 C 75.246094 304.234375 89.507812 295.980469 97.894531 283.472656 L 142 305.550781 C 141.242188 308.886719 140.804688 312.347656 140.804688 315.90625 C 140.804688 341.652344 161.753906 362.601562 187.5 362.601562 C 213.246094 362.601562 234.191406 341.652344 234.191406 315.90625 C 234.191406 306.230469 231.234375 297.234375 226.167969 289.769531 L 288.148438 224.964844 C 295.921875 230.730469 305.503906 234.191406 315.90625 234.191406 C 341.652344 234.191406 362.601562 213.246094 362.601562 187.5 C 362.601562 161.753906 341.652344 140.804688 315.90625 140.804688 C 305.132812 140.804688 295.234375 144.503906 287.316406 150.65625 L 224.339844 87.679688 C 230.492188 79.765625 234.191406 69.867188 234.191406 59.089844 C 234.191406 33.34375 213.246094 12.398438 187.5 12.398438 C 161.753906 12.398438 140.804688 33.34375 140.804688 59.089844 C 140.804688 62.640625 141.238281 66.089844 141.996094 69.417969 L 100.601562 84.5 C 92.839844 69.433594 77.167969 59.089844 59.089844 59.089844 C 33.34375 59.089844 12.398438 80.039062 12.398438 105.785156 C 12.398438 131.53125 33.34375 152.476562 59.089844 152.476562 C 65.734375 152.476562 72.042969 151.066406 77.769531 148.550781 L 99.253906 184.707031 Z M 59.089844 292.558594 C 39.777344 292.558594 24.070312 276.851562 24.070312 257.539062 C 24.070312 238.226562 39.777344 222.519531 59.089844 222.519531 C 78.40625 222.519531 94.109375 238.226562 94.109375 257.539062 C 94.109375 276.851562 78.40625 292.558594 59.089844 292.558594 Z M 103.09375 273.011719 C 104.804688 268.164062 105.785156 262.96875 105.785156 257.539062 C 105.785156 243.222656 99.292969 230.40625 89.121094 221.835938 L 105.90625 195.910156 L 156.515625 281.074219 C 152.257812 284.867188 148.691406 289.40625 146.046875 294.515625 Z M 187.5 105.785156 C 198.273438 105.785156 208.171875 102.085938 216.085938 95.933594 L 279.070312 158.917969 C 275.292969 163.773438 272.46875 169.382812 270.839844 175.488281 L 234.175781 170.445312 C 234.167969 170.292969 234.191406 170.140625 234.191406 169.988281 C 234.191406 144.242188 213.246094 123.292969 187.5 123.292969 C 171.34375 123.292969 157.078125 131.546875 148.695312 144.054688 L 141.734375 140.578125 L 167.285156 101.117188 C 173.410156 104.074219 180.25 105.785156 187.5 105.785156 Z M 193.335938 269.617188 L 193.335938 216.273438 C 212.304688 213.890625 227.738281 200.105469 232.570312 182 L 269.234375 187.042969 C 269.234375 187.195312 269.210938 187.347656 269.210938 187.5 C 269.210938 198.648438 273.148438 208.878906 279.691406 216.914062 L 218.402344 280.996094 C 211.535156 274.910156 202.890625 270.816406 193.335938 269.617188 Z M 187.5 134.96875 C 206.8125 134.96875 222.519531 150.675781 222.519531 169.988281 C 222.519531 189.300781 206.8125 205.007812 187.5 205.007812 C 168.183594 205.007812 152.476562 189.300781 152.476562 169.988281 C 152.476562 150.675781 168.183594 134.96875 187.5 134.96875 Z M 143.496094 154.515625 C 141.785156 159.367188 140.804688 164.558594 140.804688 169.988281 C 140.804688 193.753906 158.664062 213.390625 181.660156 216.28125 L 181.660156 269.621094 C 176.128906 270.316406 170.90625 271.972656 166.148438 274.429688 L 112.988281 184.972656 L 135.347656 150.441406 Z M 187.5 350.925781 C 168.183594 350.925781 152.476562 335.21875 152.476562 315.90625 C 152.476562 296.59375 168.183594 280.886719 187.5 280.886719 C 206.8125 280.886719 222.519531 296.59375 222.519531 315.90625 C 222.519531 335.21875 206.8125 350.925781 187.5 350.925781 Z M 315.90625 152.476562 C 335.21875 152.476562 350.925781 168.183594 350.925781 187.5 C 350.925781 206.8125 335.21875 222.519531 315.90625 222.519531 C 296.59375 222.519531 280.886719 206.8125 280.886719 187.5 C 280.886719 168.183594 296.59375 152.476562 315.90625 152.476562 Z M 187.5 24.070312 C 206.8125 24.070312 222.519531 39.777344 222.519531 59.089844 C 222.519531 78.40625 206.8125 94.109375 187.5 94.109375 C 168.183594 94.109375 152.476562 78.40625 152.476562 59.089844 C 152.476562 39.777344 168.183594 24.070312 187.5 24.070312 Z M 145.988281 80.378906 C 148.84375 85.917969 152.746094 90.8125 157.46875 94.792969 L 131.226562 135.324219 L 103.09375 121.257812 C 104.804688 116.40625 105.785156 111.210938 105.785156 105.785156 C 105.785156 102.234375 105.351562 98.785156 104.59375 95.460938 Z M 24.070312 105.785156 C 24.070312 86.472656 39.777344 70.765625 59.089844 70.765625 C 78.40625 70.765625 94.109375 86.472656 94.109375 105.785156 C 94.109375 125.097656 78.40625 140.804688 59.089844 140.804688 C 39.777344 140.804688 24.070312 125.097656 24.070312 105.785156 Z M 87.777344 142.550781 C 91.6875 139.492188 95.121094 135.851562 97.894531 131.71875 L 124.839844 145.1875 L 106.332031 173.769531 Z M 87.777344 142.550781 " fill-opacity="1" fill-rule="nonzero"/></g></svg>