<svg xmlns="http://www.w3.org/2000/svg" xmlns:xlink="http://www.w3.org/1999/xlink" width="500" zoomAndPan="magnify" viewBox="0 0 375 374.999991" height="500" preserveAspectRatio="xMidYMid meet" version="1.0"><defs><clipPath id="8e7e75845b"><path d="M 59.378906 5.992188 L 325.628906 5.992188 L 325.628906 368.992188 L 59.378906 368.992188 Z M 59.378906 5.992188 " clip-rule="nonzero"/></clipPath></defs><g clip-path="url(#8e7e75845b)"><path fill="#ffffff" d="M 59.453125 54.394531 L 59.453125 320.601562 C 59.453125 329.964844 65.550781 339.960938 79.007812 347.753906 C 100.316406 360.074219 143.125 369.003906 192.554688 369.003906 C 241.984375 369.003906 284.796875 360.074219 306.105469 347.753906 C 319.5625 339.960938 325.660156 329.964844 325.660156 320.601562 C 325.660156 320.601562 325.660156 54.175781 325.660156 54.175781 C 325.5625 44.871094 319.464844 34.972656 306.105469 27.238281 C 284.796875 14.921875 241.984375 5.992188 192.554688 5.992188 C 143.125 5.992188 100.316406 14.921875 79.007812 27.238281 C 65.550781 35.03125 59.453125 45.027344 59.453125 54.394531 Z M 301.460938 259.46875 C 278.941406 270.492188 238.609375 278.25 192.554688 278.25 C 146.488281 278.25 106.160156 270.492188 83.652344 259.46875 L 83.652344 320.601562 C 83.652344 321.617188 84.8125 322.164062 85.820312 323.082031 C 88.988281 325.925781 93.683594 328.453125 99.492188 330.839844 C 120.484375 339.417969 154.378906 344.800781 192.554688 344.800781 C 230.734375 344.800781 264.625 339.417969 285.621094 330.839844 C 291.429688 328.453125 296.125 325.925781 299.292969 323.082031 C 300.296875 322.164062 301.460938 321.617188 301.460938 320.601562 Z M 301.460938 174.765625 C 278.941406 185.789062 238.609375 193.546875 192.554688 193.546875 C 146.488281 193.546875 106.160156 185.789062 83.652344 174.765625 L 83.652344 229.835938 C 83.664062 230.875 84.839844 231.445312 85.878906 232.378906 C 89.074219 235.234375 93.78125 237.75 99.613281 240.132812 C 120.605469 248.6875 154.453125 254.050781 192.554688 254.050781 C 230.734375 254.050781 264.625 248.664062 285.621094 240.085938 C 291.429688 237.703125 296.125 235.171875 299.292969 232.328125 C 300.296875 231.410156 301.460938 230.863281 301.460938 229.847656 Z M 301.460938 84.015625 C 278.941406 95.039062 238.609375 102.792969 192.554688 102.792969 C 146.5 102.792969 106.171875 95.039062 83.652344 84.015625 L 83.652344 145.132812 C 83.664062 146.175781 84.839844 146.742188 85.878906 147.675781 C 89.074219 150.53125 93.78125 153.046875 99.613281 155.429688 C 120.605469 163.984375 154.453125 169.347656 192.554688 169.347656 C 230.734375 169.347656 264.625 163.960938 285.621094 155.382812 C 291.429688 153 296.125 150.46875 299.292969 147.625 C 300.296875 146.707031 301.460938 146.160156 301.460938 145.144531 Z M 192.554688 30.191406 C 230.734375 30.191406 264.625 35.578125 285.621094 44.15625 C 291.429688 46.539062 296.125 49.070312 299.292969 51.914062 C 300.296875 52.832031 301.460938 53.375 301.460938 54.394531 C 301.460938 55.410156 300.296875 55.953125 299.292969 56.875 C 296.125 59.714844 291.429688 62.246094 285.621094 64.628906 C 264.625 73.207031 230.734375 78.59375 192.554688 78.59375 C 154.378906 78.59375 120.484375 73.207031 99.492188 64.628906 C 93.683594 62.246094 88.988281 59.714844 85.820312 56.875 C 84.8125 55.953125 83.652344 55.410156 83.652344 54.394531 C 83.652344 53.375 84.8125 52.832031 85.820312 51.914062 C 88.988281 49.070312 93.683594 46.539062 99.492188 44.15625 C 120.484375 35.578125 154.378906 30.191406 192.554688 30.191406 Z M 192.554688 30.191406 " fill-opacity="1" fill-rule="evenodd"/></g></svg>