<svg xmlns="http://www.w3.org/2000/svg" xmlns:xlink="http://www.w3.org/1999/xlink" width="64" zoomAndPan="magnify" viewBox="0 0 48 48" height="64" preserveAspectRatio="xMidYMid meet" version="1.0"><defs><clipPath id="39c531717d"><path d="M 8 34 L 15 34 L 15 42.425781 L 8 42.425781 Z M 8 34 " clip-rule="nonzero"/></clipPath><clipPath id="92bce6f84d"><path d="M 16 31 L 23 31 L 23 42.425781 L 16 42.425781 Z M 16 31 " clip-rule="nonzero"/></clipPath><clipPath id="8d244d48f0"><path d="M 25 4.957031 L 31 4.957031 L 31 32 L 25 32 Z M 25 4.957031 " clip-rule="nonzero"/></clipPath><clipPath id="805c953775"><path d="M 25 34 L 31 34 L 31 42.425781 L 25 42.425781 Z M 25 34 " clip-rule="nonzero"/></clipPath><clipPath id="04b41bc9c7"><path d="M 1.21875 24 L 46.769531 24 L 46.769531 41 L 1.21875 41 Z M 1.21875 24 " clip-rule="nonzero"/></clipPath><clipPath id="287cc5e583"><path d="M 34.433594 36.734375 L 36.636719 36.734375 L 36.636719 38.9375 L 34.433594 38.9375 Z M 34.433594 36.734375 " clip-rule="nonzero"/></clipPath></defs><path fill="#71d1ea" d="M 14.019531 13.511719 L 14.019531 27.902344 L 8.5 31.550781 L 8.5 13.511719 L 14.019531 13.511719 " fill-opacity="1" fill-rule="nonzero"/><g clip-path="url(#39c531717d)"><path fill="#71d1ea" d="M 8.5 38.3125 L 14.019531 34.667969 L 14.019531 42.292969 L 8.5 42.292969 L 8.5 38.3125 " fill-opacity="1" fill-rule="nonzero"/></g><path fill="#71d1ea" d="M 22.464844 20.34375 L 22.464844 24.082031 C 21.703125 23.46875 20.746094 23.105469 19.699219 23.105469 C 18.65625 23.105469 17.699219 23.46875 16.9375 24.078125 L 16.9375 20.34375 L 22.464844 20.34375 " fill-opacity="1" fill-rule="nonzero"/><g clip-path="url(#92bce6f84d)"><path fill="#71d1ea" d="M 20.867188 31.777344 L 22.460938 32.898438 L 22.460938 42.292969 L 16.941406 42.292969 L 16.941406 32.738281 L 18.4375 31.75 C 19.21875 31.984375 20.078125 31.996094 20.867188 31.777344 " fill-opacity="1" fill-rule="nonzero"/></g><g clip-path="url(#8d244d48f0)"><path fill="#71d1ea" d="M 30.902344 4.9375 L 30.902344 31.941406 L 25.382812 28.054688 L 25.382812 4.9375 L 30.902344 4.9375 " fill-opacity="1" fill-rule="nonzero"/></g><g clip-path="url(#805c953775)"><path fill="#71d1ea" d="M 25.386719 34.957031 L 30.90625 38.839844 L 30.90625 42.292969 L 25.386719 42.292969 L 25.386719 34.957031 " fill-opacity="1" fill-rule="nonzero"/></g><g clip-path="url(#04b41bc9c7)"><path fill="#71d1ea" d="M 39.933594 28.648438 L 42.558594 29.792969 L 36.5625 35.785156 C 36.214844 35.609375 35.816406 35.507812 35.402344 35.507812 C 34.761719 35.507812 34.179688 35.738281 33.722656 36.117188 L 22.265625 28.054688 C 22.296875 27.882812 22.320312 27.703125 22.320312 27.519531 C 22.320312 26.078125 21.148438 24.902344 19.699219 24.902344 C 18.261719 24.902344 17.082031 26.078125 17.082031 27.519531 C 17.082031 27.683594 17.097656 27.851562 17.128906 28 L 5.453125 35.714844 C 5.019531 35.382812 4.476562 35.183594 3.886719 35.183594 C 2.441406 35.183594 1.265625 36.359375 1.265625 37.808594 C 1.265625 39.25 2.441406 40.425781 3.886719 40.425781 C 5.328125 40.425781 6.503906 39.25 6.503906 37.808594 C 6.503906 37.695312 6.5 37.597656 6.484375 37.492188 L 18.265625 29.714844 C 18.683594 29.976562 19.171875 30.144531 19.699219 30.144531 C 20.210938 30.144531 20.6875 29.992188 21.089844 29.738281 L 32.792969 37.972656 C 32.785156 38.019531 32.777344 38.074219 32.777344 38.125 C 32.777344 39.574219 33.953125 40.742188 35.402344 40.742188 C 36.84375 40.742188 38.019531 39.574219 38.019531 38.125 C 38.019531 37.855469 37.980469 37.597656 37.898438 37.351562 L 44.054688 31.199219 L 45.261719 33.976562 L 46.734375 27.175781 L 39.933594 28.648438 " fill-opacity="1" fill-rule="nonzero"/></g><g clip-path="url(#287cc5e583)"><path fill="#71d1ea" d="M 36.636719 37.835938 C 36.636719 37.984375 36.609375 38.125 36.554688 38.257812 C 36.496094 38.394531 36.417969 38.511719 36.3125 38.617188 C 36.210938 38.71875 36.089844 38.800781 35.957031 38.855469 C 35.820312 38.910156 35.679688 38.9375 35.535156 38.9375 C 35.386719 38.9375 35.246094 38.910156 35.113281 38.855469 C 34.976562 38.800781 34.859375 38.71875 34.753906 38.617188 C 34.652344 38.511719 34.574219 38.394531 34.515625 38.257812 C 34.460938 38.125 34.433594 37.984375 34.433594 37.835938 C 34.433594 37.691406 34.460938 37.550781 34.515625 37.414062 C 34.574219 37.28125 34.652344 37.160156 34.753906 37.058594 C 34.859375 36.953125 34.976562 36.875 35.113281 36.820312 C 35.246094 36.761719 35.386719 36.734375 35.535156 36.734375 C 35.679688 36.734375 35.820312 36.761719 35.957031 36.820312 C 36.089844 36.875 36.210938 36.953125 36.3125 37.058594 C 36.417969 37.160156 36.496094 37.28125 36.554688 37.414062 C 36.609375 37.550781 36.636719 37.691406 36.636719 37.835938 Z M 36.636719 37.835938 " fill-opacity="1" fill-rule="nonzero"/></g></svg>